<?xml version="1.0" encoding="utf-8"?>
<!-- Generator: Adobe Illustrator 25.2.3, SVG Export Plug-In . SVG Version: 6.00 Build 0)  -->
<svg version="1.1"
	 id="Layer_1" inkscape:export-filename="C:\Users\dell\Desktop\svg files\0na upravu\1\heart\flower-heart.png" xmlns:cc="http://creativecommons.org/ns#" xmlns:dc="http://purl.org/dc/elements/1.1/" xmlns:inkscape="http://www.inkscape.org/namespaces/inkscape" xmlns:rdf="http://www.w3.org/1999/02/22-rdf-syntax-ns#" xmlns:sodipodi="http://sodipodi.sourceforge.net/DTD/sodipodi-0.dtd" xmlns:svg="http://www.w3.org/2000/svg"
	 xmlns="http://www.w3.org/2000/svg" xmlns:xlink="http://www.w3.org/1999/xlink" x="0px" y="0px" viewBox="0 0 1815.4 1475.8"
	 style="enable-background:new 0 0 1815.4 1475.8;" xml:space="preserve">
<style type="text/css">
	.st0{stroke:#000000;stroke-width:4.532704e-02;}
</style>
<sodipodi:namedview  bordercolor="#666666" borderopacity="1" gridtolerance="10" guidetolerance="10" id="namedview43" inkscape:current-layer="_x23_000000ff" inkscape:cx="460.69743" inkscape:cy="961.92091" inkscape:pageopacity="0" inkscape:pageshadow="2" inkscape:window-height="480" inkscape:window-width="640" inkscape:zoom="0.38571128" objecttolerance="10" pagecolor="#ffffff" showgrid="false">
	</sodipodi:namedview>
<g id="_x23_ffffffff">
</g>
<path id="path5" inkscape:connector-curvature="0" class="st0" d="M1048.7,386.6c3.8-1.9,7.6-3.7,11.6-5.3c1.3,0.7,2,2.1,3,3.2
	c5.9,7.8,8.6,17.5,9.7,27.1c1.2,11.3,0.9,23-2.5,34c-2.8,9.3-7.8,18-14.3,25.2c-7.8,8.7-17.4,15.5-27.7,20.8
	c-7.3-5.6-14-12.3-18.6-20.3c-5.1-8.6-7.6-18.7-6.9-28.7c0.4-10,4.1-19.7,9.9-27.7C1021.8,402.4,1035,393.5,1048.7,386.6
	L1048.7,386.6z"/>
<path id="path7" inkscape:connector-curvature="0" sodipodi:nodetypes="cccccccc" class="st0" d="M872.6,431.9
	c15.9-0.1,32.8-0.4,46.1,6.8c6.2,3.4,11.3,8.6,14.5,14.9c3,5.9,4.3,12.4,4.7,18.9c0.8,8.2-1.2,16.4-3,24.4
	c-5.5-2.1-11.4-2.2-17.2-2.3c-9-0.3-17.8-4.1-24.2-10.4C880.4,470.9,872.8,448.2,872.6,431.9L872.6,431.9z"/>
<path id="path9" inkscape:connector-curvature="0" sodipodi:nodetypes="sccccccccs" class="st0" d="M1198.3,454.8
	c7.4-1.2,15.7-1.2,23.4-1c3.9,11.3-2.4,28.3-7.6,36.7c-4.4,7.1-10.1,13.4-16.3,19c-10.3,9.3-22.7,16.8-36.5,19.5
	c-12.2,2.4-22.8-0.3-33.9-2.6c-1.8-8.5-0.3-17.5,3.4-25.3c3.9-8.2,9.9-15.1,16.4-21.3c6.9-6.6,14.9-12.2,23.2-16.8
	C1179.1,458.2,1188.6,456.4,1198.3,454.8L1198.3,454.8z"/>
<path id="path11" inkscape:connector-curvature="0" sodipodi:nodetypes="ccccccccc" class="st0" d="M968.8,500.1
	c19.4-6,31-2.8,45.6,7.8c3.9,3.1,8.2,6.2,10.3,10.9c-8.3,0.1-16.5,0-24.8,0c-13.2-0.2-26,4.9-36.8,12.2
	c-7.1,4.8-13.5,10.5-19.6,16.5c-1.2-2.1-2.4-4.4-2.3-6.8c-0.1-8.6,1.9-17.5,6.8-24.8C952.9,508.6,960.5,503.2,968.8,500.1
	L968.8,500.1z"/>
<path id="path13" inkscape:connector-curvature="0" sodipodi:nodetypes="ccccccccccccccccc" class="st0" d="M1052.7,530.8
	c10.8-4.3,21.5-4.3,31.9-1.5c6.7,1.8,13.2,5.7,16.8,11.8c3.5,5.8,4.4,12.8,4.1,19.5c4,2,8.7,1.1,13,1.7c4.9,0.9,9.1,3.8,12.6,7.1
	c5.2,5,10.1,11.2,10.9,18.6c0.4,5.7-0.5,11.8-3.8,16.6c-2.9,4.3-7.8,6.8-12.8,7.8c-5.7,1.2-11.6,1.1-17.3,0.1
	c-2.7-0.7-4-3.6-5.2-5.9c-2.2-4.6-3.5-9.5-4.9-14.4c-2.8-9.1-8.6-16.9-15.3-23.5c-6.3-6.1-13.3-11.4-20.9-15.7
	c-9.2-5.2-19.5-8.6-30.1-8.6c0.6-2.6,2.9-4.3,4.9-5.8C1041.5,535.4,1047.1,533.1,1052.7,530.8L1052.7,530.8z"/>
<path id="path15" inkscape:connector-curvature="0" sodipodi:nodetypes="cccccacccccccccccccccacacacccccccc" class="st0" d="
	M585.7,543.1c12.7-2.6,25.7-3.8,38.6-3.8c19.9,0.1,39.5,5.3,58.1,12c18.4,6.9,36.1,15.3,53.1,25c25.6,14.6,50.3,31.5,70.7,52.8
	c3.1-1.6,5.4-4.2,8-6.4c8.2-7.2,16.5-15.2,23.8-22.3c4.8,14,15.4,27.3,23.5,38.5c-0.5,1.8-2,3.3-2.8,5
	c-16.7,28.8-24.3,61.9-27.4,94.8c-5.9-6.6-11.6-13.3-17.6-19.8c-26.2-28.5-54.4-55.4-86.4-77.4c-21.8-14.8-45.5-27.4-71.1-34.1
	c-39.8-9.8-88.9-5.8-109.8,32.9c-7.8,14.5-10.7,31.2-11.1,47.5c-0.6,15.2,2.4,30.3,7.1,44.7c6.5,19.8,15.9,38.5,26.4,56.3
	c19.1,32.1,42.1,61.8,66.1,90.4c23.5,27.9,48.1,54.9,74.8,79.8c22.8,21.3,47,41.2,73.4,58c20.8-13,41.7-25.9,62.5-38.9
	c23.5-1.1,46.2-3.3,69-6.8c14.9-2.3,30.1-5.7,44.3-9.2c-11.7,14.4-23.5,25.8-36.9,36.9c-43.1,35.9-125.4,90-138.7,95.2
	c-12.7-5-84.8-56.2-123.4-89c-29-24.7-55.7-52-80.7-80.8c-25-28.8-48.4-59.3-67.7-92.3c-10-17.2-19-35-26.1-53.6
	c-8.5-22.4-14.5-45.9-16-69.8c-1.2-19.7,0.3-39.7,5.2-58.9c4.9-19.2,13.5-37.4,25.6-53.1c9.2-12,20.1-22.7,32.5-31.3
	C548.6,554.4,566.8,547,585.7,543.1L585.7,543.1z"/>
<path id="path17" inkscape:connector-curvature="0" class="st0" d="M982.7,545c5-0.4,10.3-1,15,1.2c3.3,1.4,5.6,4.5,6.5,7.9
	c1.1,4.3,1.3,9.2-1.2,13.1c-2.8,4.7-8.1,7-11.3,11.4c-0.9,1.2-1.6,2.6-1.5,4.1c0,3,2,5.5,4.4,7.1c3.2,2.3,7,4.1,11.1,3.8
	c2.1-0.2,3.9-1.6,5.2-3.3c2.4-3,3.5-6.8,4.7-10.4c1.4-4.1,4.1-8.2,8.2-10c4.1-1.8,8.9-1.5,13.1-0.3c4.4,1.3,7.8,5.2,8.7,9.7
	c1.9,9-0.4,18.9-6.1,26.1c-4.7,6-11,10.7-18.1,13.5c-8.8,3.3-18.6,3.4-27.6,1.1c-9.6-2.6-17.9-8.9-23.9-16.7
	c-8.2-10.2-12.1-23.7-10.6-36.6c0.6-5.3,2.6-10.7,6.5-14.5C970.3,547.8,976.6,545.7,982.7,545L982.7,545z"/>
<path id="path19" inkscape:connector-curvature="0" sodipodi:nodetypes="cccccccccccccccc" class="st0" d="M899.8,557.6
	c5.7-1,11.8-1.7,17.3,0.6c6.8,2.9,11.8,8.6,15.7,14.7c4.1,6.3,7.5,13.3,8.7,20.8c1.6,9.5-1.5,18.9-2.8,28.3
	c-0.9,5.1-0.7,10.3,0,15.4c0.7,5,2.2,10,5.6,13.8c-8.7-1.6-17.5-4.3-25-9.1c-9.2-5.5-12.2-11.7-15-19.6c-4.3,0.4-11.2,1-15.5,1.4
	c-6.5,0.3-12.8-2.1-18.1-5.8c-4.2-2.9-8-6.5-10-11.3c-1.7-4.2-1.4-8.8-0.6-13.2c1.5-8.3,6.3-15.7,12.4-21.5
	C880,565.1,889.4,559.6,899.8,557.6L899.8,557.6z"/>
<path id="path21" inkscape:connector-curvature="0" sodipodi:nodetypes="cccccccccccccccc" class="st0" d="M1047.9,624.1
	c6-5.7,14.1-9.5,22.5-9c2.2,0.8,3.4,3,4.4,4.9c2.5,5.1,3.9,10.6,5.5,16c1.4,5,2.5,10.2,2.7,15.4c0.1,10.4-2.1,20.9-7.3,30
	c-4.2,7.3-9.8,13.8-16.8,18.4c-9.1,6.1-20.2,8.5-31,8.2c-11-0.2-21.7-3.1-32-6.7c-10.4-4.6-29.9-16.8-37.8-27.2
	c1-3.2,7.5-5.7,10.2-7.4c7.1-4.2,15.1-6.8,22.9-9.4c5.2-1.6,10.5-3.1,16-3.6c6.5-0.5,12.7,2.2,18.2,5.2c3.3-5.6,6.5-11.1,9.6-16.8
	C1038.4,635.5,1042.5,629.1,1047.9,624.1L1047.9,624.1z"/>
<path id="path23" inkscape:connector-curvature="0" sodipodi:nodetypes="cccccccccccccccccc" class="st0" d="M1112.6,637.6
	c17,3,32.2,13.8,41.1,28.5c5.4,8.8,7.8,19.4,7.1,29.7c-0.7,9-5.3,17.3-11.4,23.9c-6.4,6.8-14.1,12.3-22.3,16.8
	c-12.4,6.8-27,10.1-41,7.7c-2.9,9.4-7.6,18.3-14.1,25.7c-5.8,6.6-12.5,12.4-20.3,16.4c-8.5,4.5-18.2,6.5-27.7,6.3
	c-11.9-0.1-23.8-3.3-34.3-8.8c-11.3-5.9-21.2-14.3-29.7-23.7c6.9-1.8,13.7-3.7,20.6-5.5c13.4-3.4,26.6-9.9,35.3-20.9
	c16.6,3.8,33.4,3.2,48.6-0.7c9.6-2.6,19-7,26.5-13.6c6.2-5.4,11.2-12.2,14.6-19.7c4.6-10.1,6.8-21.3,7.5-32.3
	C1113.6,657.4,1113.2,647.5,1112.6,637.6L1112.6,637.6z"/>
<path id="path25" inkscape:connector-curvature="0" sodipodi:nodetypes="ccccacccc" class="st0" d="M891.8,644.9
	c0.6-0.3,1.3-0.4,1.8,0.1c6.8,5,13.2,10.6,18.2,17.5c3.5,4.9,6,10.6,6,16.6c-9.9,2.2-20.3,3-29.8,6.7c-10.2,3.9-19.7,9.7-28.7,16
	c-3.9-7.8,2.7-20.9,6.2-27.3c4.1-7.3,8.8-14.2,14.5-20.3C883.4,650.6,887.3,647.2,891.8,644.9L891.8,644.9z"/>
<path id="path27" inkscape:connector-curvature="0" class="st0" d="M1211.5,694.4c17.1-9.2,36.6-14.6,56.1-13.5
	c12.9,0.7,25.5,4.7,36.7,11.2c-2.6,8.5-7.5,16.2-13.7,22.4c-5.8,5.8-12.7,10.5-19.9,14.4c-18.2,10-39.4,14.7-60.1,12.7
	c-12.7-1.3-24.9-5.4-36.3-10.9C1182,714.8,1196,702.6,1211.5,694.4L1211.5,694.4z"/>
<path id="path29" inkscape:connector-curvature="0" class="st0" d="M901.7,709.4c6.5-1.6,13.2-2.1,19.9-2.2
	c10.5-0.1,20.6,3.2,30.1,7.5c6.6,3.1,13,6.7,19.1,10.7c-4.8,6.6-12.6,9.9-19.9,12.8c-5.3,2-10.7,3.8-16.3,4.7
	c-10.3,1.6-20.9-0.4-30.3-4.7c-9-4.1-16.9-10.4-23.9-17.3C886,714.7,893.8,711.3,901.7,709.4z"/>
<path id="path31" inkscape:connector-curvature="0" sodipodi:nodetypes="ccccccc" class="st0" d="M1123.5,756.4
	c15.6,8,29.6,19.7,38.3,35.1c10.6,18.4,13,40.5,10.8,61.4c-1.1,9-3.3,18.3-9.4,25.3c-6.7-3.3-12.7-7.9-18-13.1
	c-17.3-17.4-30.6-43.5-32.9-65.8C1112.5,783.8,1114,767.6,1123.5,756.4L1123.5,756.4z"/>
<path id="path33" inkscape:connector-curvature="0" sodipodi:nodetypes="cccccccac" class="st0" d="M1213.9,797.2
	c12.2-0.7,24.5-2.1,36.8-1.2c18.8,1.2,37.6,6.8,52.9,18c13.3,9.6,23.6,23,31,37.6c5,9.9,8.9,20.4,11.8,31.1
	c-10,2.6-20.4,3.1-29.9,2.8c-17.5-0.7-35.1-3.7-51.1-11c-14.8-6.6-27.8-17.7-36.7-31C1219.6,830.1,1214.8,814.6,1213.9,797.2z"/>
<path id="path35" inkscape:connector-curvature="0" class="st0" d="M883.5,801c5.4-1.5,10.8-2.8,16.4-3c11.2-0.1,22.7,1.7,32.7,7.1
	c10.6,5.6,18.6,15.3,23.4,26.1c-7.3,5-15.7,9.3-24.7,9c-12.7,0.1-25.7-2.4-37.1-8.3c-11.9-6.1-21.3-16.3-27.8-27.9
	C872.2,803.8,877.8,802.3,883.5,801L883.5,801z"/>
<path id="path37" inkscape:connector-curvature="0" sodipodi:nodetypes="cccccccaccc" class="st0" d="M1021.4,809.4
	c8.6,6.3,19.1,9.2,29.6,10.5c10.8,1.2,21.7,1.3,32.4-0.7c4.1-0.7,8.1-1.8,12-3c-3.4,8.6-8.5,16.4-13.5,24.1
	c-10.2,15.3-21,30.3-33.4,44c-5.4,6.2-9.6,10.4-15.6,16c0,0-5-5.8-7.8-8.4c-5.7-5.4-11.5-11-18.3-15.1c-9.7-5.9-20.1-10.4-30.7-14.4
	C991.7,845,1006.5,827.2,1021.4,809.4L1021.4,809.4z"/>
<path id="path39" inkscape:connector-curvature="0" class="st0" d="M835.8,889.4c10.5-3.6,21.5-5,32.6-5.2
	c21.9-0.3,44.3,4.1,63.1,15.7c3.1,1.9,6,4,8.9,6.1c-5.3,7.9-11.8,15-19.3,20.9c-15,11.8-33.8,18-52.7,19.9
	c-12,1.2-24.4,1.6-36.2-1.4c-14.7-3.4-28.1-11-39.8-20.4c4.5-7.8,10.3-14.9,17.1-20.9C817.2,897.6,826.2,892.6,835.8,889.4
	L835.8,889.4z"/>
<path id="path41" inkscape:connector-curvature="0" class="st0" d="M960.7,891.6c0.2-2.5,0.8-4.9,0.8-7.4c10,1.2,19.9,4,29,8.5
	c9.8,4.8,18.7,11.3,26.5,18.9c12.8,12.4,23.3,27.8,27.7,45.2c1.6,6.5,2.4,13.1,2.4,19.8c-0.6,3.4-1.9,6.6-3.1,9.8
	c-8.1-1-16-3-23.5-6.3c-8.7-3.8-16.6-9.2-23.8-15.3c-12.8-11.1-24.2-24.4-30.8-40.2c-2.5-6.1-4.2-12.5-4.9-19
	C960.6,900.9,960.6,896.2,960.7,891.6L960.7,891.6z"/>
</svg>
